<svg xmlns="http://www.w3.org/2000/svg" viewBox="0 0 800 450">
  <defs>
    <linearGradient id="bg" x1="0%" y1="0%" x2="0%" y2="100%">
      <stop offset="0%" style="stop-color:#0f172a;stop-opacity:1" />
      <stop offset="100%" style="stop-color:#1e293b;stop-opacity:1" />
    </linearGradient>
    <linearGradient id="glow" x1="0%" y1="0%" x2="100%" y2="100%">
      <stop offset="0%" style="stop-color:#22d3ee;stop-opacity:1" />
      <stop offset="100%" style="stop-color:#8b5cf6;stop-opacity:1" />
    </linearGradient>
  </defs>
  <rect width="800" height="450" fill="url(#bg)" />
  
  <!-- Chat Bubbles -->
  <path d="M200 150 H500 A20 20 0 0 1 520 170 V230 A20 20 0 0 1 500 250 H220 L180 290 V170 A20 20 0 0 1 200 150 Z" 
        fill="none" stroke="url(#glow)" stroke-width="4" />
        
  <!-- Brain/AI Circuitry inside bubble -->
  <circle cx="300" cy="200" r="5" fill="#22d3ee" />
  <circle cx="350" cy="180" r="5" fill="#22d3ee" />
  <circle cx="350" cy="220" r="5" fill="#22d3ee" />
  <circle cx="400" cy="200" r="5" fill="#22d3ee" />
  
  <line x1="300" y1="200" x2="350" y2="180" stroke="#22d3ee" stroke-width="2" opacity="0.5" />
  <line x1="300" y1="200" x2="350" y2="220" stroke="#22d3ee" stroke-width="2" opacity="0.5" />
  <line x1="350" y1="180" x2="400" y2="200" stroke="#22d3ee" stroke-width="2" opacity="0.5" />
  <line x1="350" y1="220" x2="400" y2="200" stroke="#22d3ee" stroke-width="2" opacity="0.5" />
  
  <!-- Student Icon -->
  <circle cx="600" cy="300" r="40" fill="#334155" />
  <path d="M560 380 Q600 340 640 380" stroke="#334155" stroke-width="40" fill="none" />
  
  <text x="400" y="400" font-family="monospace" font-size="24" fill="#94a3b8" text-anchor="middle">Student Guidance AI</text>
</svg>
